<?xml version="1.0" standalone="no"?>
<!DOCTYPE svg PUBLIC "-//W3C//DTD SVG 20010904//EN"
 "http://www.w3.org/TR/2001/REC-SVG-20010904/DTD/svg10.dtd">
<svg version="1.0" xmlns="http://www.w3.org/2000/svg"
 width="700.000000pt" height="700.000000pt" viewBox="0 0 700.000000 700.000000"
 preserveAspectRatio="xMidYMid meet">
<metadata>
Created by potrace 1.14, written by Peter Selinger 2001-2017
</metadata>
<g transform="translate(0.000000,700.000000) scale(0.100000,-0.100000)"
fill="#000000" stroke="none">
<path d="M3278 6995 c-1 -1 -42 -5 -89 -9 -47 -4 -95 -8 -106 -10 -11 -3 -44
-7 -74 -11 -230 -29 -613 -130 -794 -210 -16 -7 -46 -19 -65 -26 -76 -30 -351
-171 -453 -233 -364 -221 -693 -515 -953 -851 -65 -84 -156 -212 -179 -252 -6
-10 -37 -63 -70 -118 -123 -208 -237 -462 -314 -706 -36 -114 -92 -337 -104
-414 -3 -16 -10 -59 -16 -95 -10 -63 -13 -88 -28 -230 -10 -84 -10 -500 -1
-610 7 -88 24 -226 33 -270 2 -14 7 -41 10 -60 4 -19 11 -55 16 -80 6 -25 13
-56 15 -70 16 -85 90 -330 140 -460 66 -170 169 -385 252 -525 64 -109 196
-298 279 -403 l82 -103 -18 -52 c-60 -173 -206 -437 -334 -602 -111 -144 -297
-334 -406 -415 -33 -25 -60 -48 -61 -51 0 -13 247 -76 385 -99 198 -32 566
-35 718 -4 12 2 39 6 59 9 219 28 585 163 807 298 38 23 29 25 186 -41 89 -37
258 -95 355 -122 246 -69 478 -108 735 -125 100 -7 365 -7 435 -1 25 3 77 7
117 11 40 3 80 7 90 9 10 2 45 7 78 11 80 9 282 50 375 76 41 11 82 22 90 24
22 4 232 74 255 84 11 5 47 19 80 32 100 38 298 134 412 200 124 71 276 169
281 181 2 4 10 8 17 8 7 0 15 3 17 8 2 4 30 27 63 51 148 110 387 330 516 476
249 283 481 659 619 1005 56 141 137 392 155 478 2 9 12 62 24 117 21 106 26
130 37 210 3 28 8 58 10 67 26 146 26 694 0 848 -3 14 -7 46 -10 71 -60 474
-267 1017 -549 1439 -58 86 -187 258 -232 310 -194 221 -358 376 -555 527 -95
72 -285 203 -296 203 -2 0 -27 15 -56 34 -146 93 -468 237 -693 309 -160 51
-390 107 -505 122 -19 3 -46 7 -60 10 -13 2 -52 7 -86 11 -33 3 -74 8 -90 10
-33 5 -540 14 -546 9z"/>
</g>
</svg>
